<svg width="17" height="17" viewBox="0 0 17 17" fill="none" xmlns="http://www.w3.org/2000/svg">
<path fill-rule="evenodd" clip-rule="evenodd" d="M8.48837 0.00189942C6.21736 0.0390784 4.0522 0.968493 2.46094 2.58923C0.852215 4.19088 -0.035786 6.37803 0.00110524 8.64781C-0.00153324 10.8648 0.878313 12.9916 2.44639 14.5587C4.01447 16.1259 6.14182 17.0045 8.35875 17.0005H8.51032C13.2403 16.9518 17.0382 13.0833 16.9997 8.35317C17.005 6.10875 16.1047 3.95709 14.5027 2.38518C12.9006 0.813267 10.7323 -0.0459863 8.48837 0.00189942ZM7.43799 11.7182C7.42768 11.4376 7.53063 11.1648 7.72366 10.9609C7.9167 10.7571 8.1836 10.6395 8.46428 10.6345H8.48341C9.06421 10.6356 9.54043 11.0953 9.56211 11.6757C9.57262 11.9563 9.46974 12.2293 9.27666 12.4332C9.08358 12.637 8.81657 12.7546 8.53582 12.7594H8.5167C7.93619 12.7575 7.46039 12.2983 7.43799 11.7182ZM7.79213 8.85534V4.60569C7.79213 4.21452 8.10924 3.89741 8.50041 3.89741C8.89158 3.89741 9.20868 4.21452 9.20868 4.60569V8.85534C9.20868 9.24651 8.89158 9.56361 8.50041 9.56361C8.10924 9.56361 7.79213 9.24651 7.79213 8.85534Z" fill="#D50000"/>
</svg>
