<svg width="22" height="22" viewBox="0 0 22 22" fill="none" xmlns="http://www.w3.org/2000/svg">
<g id="Close">
<path id="Path" fill-rule="evenodd" clip-rule="evenodd" d="M15.6308 6.36921C15.3964 6.13291 15.0774 6 14.7446 6C14.4118 6 14.0927 6.13291 13.8584 6.36921L11 9.24005L8.14164 6.36921C7.6522 5.87977 6.85866 5.87977 6.36921 6.36921C5.87977 6.85866 5.87977 7.6522 6.36921 8.14164L9.24005 11L6.36921 13.8584C6.13291 14.0927 6 14.4118 6 14.7446C6 15.0774 6.13291 15.3964 6.36921 15.6308C6.60358 15.8671 6.92261 16 7.25543 16C7.58824 16 7.90727 15.8671 8.14164 15.6308L11 12.7599L13.8584 15.6308C14.0927 15.8671 14.4118 16 14.7446 16C15.0774 16 15.3964 15.8671 15.6308 15.6308C15.8671 15.3964 16 15.0774 16 14.7446C16 14.4118 15.8671 14.0927 15.6308 13.8584L12.7599 11L15.6308 8.14164C15.8671 7.90727 16 7.58824 16 7.25543C16 6.92261 15.8671 6.60358 15.6308 6.36921Z" fill="#564F5C"/>
</g>
</svg>
