<svg width="17" height="17" viewBox="0 0 17 17" fill="none" xmlns="http://www.w3.org/2000/svg">
<path fill-rule="evenodd" clip-rule="evenodd" d="M11.5837 1.70951C14.359 4.11403 14.8045 8.25441 12.6043 11.1943L12.5843 11.2143L16.5643 15.1943C16.7536 15.3821 16.8601 15.6377 16.8601 15.9043C16.8601 16.1709 16.7536 16.4265 16.5643 16.6143C16.3765 16.8036 16.1209 16.9101 15.8543 16.9101C15.5877 16.9101 15.3321 16.8036 15.1443 16.6143L11.1599 12.6299C8.22218 14.801 4.10467 14.3482 1.70951 11.5837C-0.69502 8.80843 -0.546265 4.64682 2.05028 2.05028C4.64682 -0.546265 8.80843 -0.69502 11.5837 1.70951ZM3.42622 10.5384C5.37686 12.4906 8.54038 12.4933 10.4943 10.5443C11.4347 9.60626 11.9632 8.33258 11.9632 7.00431C11.9632 5.67603 11.4347 4.40235 10.4943 3.46431C8.54038 1.51532 5.37686 1.51798 3.42622 3.47026C1.47559 5.42254 1.47559 8.58607 3.42622 10.5384Z" fill="#564F5C"/>
</svg>
